<?xml version="1.0" encoding="iso-8859-1"?>
<!-- Generator: Adobe Illustrator 19.0.0, SVG Export Plug-In . SVG Version: 6.00 Build 0)  -->
<svg version="1.1" id="Capa_1" xmlns="http://www.w3.org/2000/svg" xmlns:xlink="http://www.w3.org/1999/xlink" x="0px" y="0px"
	 viewBox="0 0 389.12 389.12" style="enable-background:new 0 0 389.12 389.12;" xml:space="preserve">
<rect x="160.427" y="279.893" style="fill:#85D839;" width="34.133" height="47.787"/>
<path d="M194.56,334.507h-34.133c-3.77,0-6.827-3.053-6.827-6.827v-47.787c0-3.773,3.057-6.827,6.827-6.827h34.133
	c3.77,0,6.827,3.053,6.827,6.827v47.787C201.387,331.453,198.33,334.507,194.56,334.507z M167.253,320.853h20.48V286.72h-20.48
	V320.853z"/>
<path style="fill:#997843;" d="M215.04,382.293c0-52.784-42.79-95.573-95.573-95.573s-95.573,42.79-95.573,95.573H215.04z"/>
<path d="M215.04,389.12H23.893c-3.77,0-6.827-3.053-6.827-6.827c0-56.467,45.937-102.4,102.4-102.4s102.4,45.933,102.4,102.4
	C221.867,386.067,218.81,389.12,215.04,389.12z M30.979,375.467h176.973c-3.497-45.759-41.849-81.92-88.487-81.92
	S34.476,329.708,30.979,375.467z"/>
<path d="M119.467,293.547c-3.77,0-6.827-3.053-6.827-6.827v-157.3c0-60.066,48.87-108.94,108.94-108.94h54.9
	c3.77,0,6.827,3.053,6.827,6.827s-3.057,6.827-6.827,6.827h-54.9c-52.54,0-95.287,42.747-95.287,95.287v157.3
	C126.293,290.493,123.237,293.547,119.467,293.547z"/>
<path style="fill:#777777;" d="M303.787,6.827v6.827h-13.653c-7.54,0-13.653,6.113-13.653,13.653l0,0
	c0,7.54,6.113,13.653,13.653,13.653h13.653v6.827h47.787c7.54,0,13.653-6.113,13.653-13.653V20.48
	c0-7.54-6.113-13.653-13.653-13.653H303.787z"/>
<path d="M351.573,54.613h-47.787c-3.77,0-6.827-3.053-6.827-6.827h-6.827c-11.293,0-20.48-9.187-20.48-20.48
	s9.187-20.48,20.48-20.48h6.827c0-3.773,3.057-6.827,6.827-6.827h47.787c11.293,0,20.48,9.187,20.48,20.48v13.653
	C372.053,45.426,362.866,54.613,351.573,54.613z M310.613,40.96h40.96c3.763,0,6.827-3.06,6.827-6.827V20.48
	c0-3.767-3.063-6.827-6.827-6.827h-40.96c0,3.773-3.057,6.827-6.827,6.827h-13.653c-3.763,0-6.827,3.06-6.827,6.827
	s3.063,6.827,6.827,6.827h13.653C307.557,34.133,310.613,37.187,310.613,40.96z"/>
<path d="M365.227,389.12H174.08c-3.77,0-6.827-3.053-6.827-6.827s3.057-6.827,6.827-6.827h191.147c3.77,0,6.827,3.053,6.827,6.827
	S368.997,389.12,365.227,389.12z"/>
<g>
</g>
<g>
</g>
<g>
</g>
<g>
</g>
<g>
</g>
<g>
</g>
<g>
</g>
<g>
</g>
<g>
</g>
<g>
</g>
<g>
</g>
<g>
</g>
<g>
</g>
<g>
</g>
<g>
</g>
</svg>
