<svg id="Filled_cutting_cutting_Ex" height="512" viewBox="0 0 512 512" width="512" xmlns="http://www.w3.org/2000/svg" data-name="Filled cutting cutting Ex"><g><rect fill="#fac850" height="464" rx="20" width="208" x="152" y="24"/><rect fill="#79d8eb" height="400" rx="10" width="144" x="184" y="56"/><circle cx="256" cy="352" fill="#fa5d3f" r="72"/><path d="m246 320h198a20 20 0 0 1 20 20v24a20 20 0 0 1 -20 20h-198a30 30 0 0 1 -30-30v-4a30 30 0 0 1 30-30z" fill="#fac850"/><g><path d="m160 44a12.013 12.013 0 0 1 12-12h168a12.013 12.013 0 0 1 12 12v252h16v-252a28.032 28.032 0 0 0 -28-28h-168a28.032 28.032 0 0 0 -28 28v44h16z"/><path d="m352 468a12.013 12.013 0 0 1 -12 12h-168a12.013 12.013 0 0 1 -12-12v-364h-16v364a28.032 28.032 0 0 0 28 28h168a28.032 28.032 0 0 0 28-28v-60h-16z"/><path d="m444 312h-118.7a79.981 79.981 0 0 0 -133.3-7.949v-238.051a2 2 0 0 1 2-2h124a2 2 0 0 1 2 2v230h16v-230a18.021 18.021 0 0 0 -18-18h-124a18.021 18.021 0 0 0 -18 18v380a18.021 18.021 0 0 0 18 18h124a18.021 18.021 0 0 0 18-18v-38h-16v38a2 2 0 0 1 -2 2h-124a2 2 0 0 1 -2-2v-46.051a79.982 79.982 0 0 0 133.3-7.949h74.7v-16h-154a22.025 22.025 0 0 1 -22-22v-4a22.025 22.025 0 0 1 22-22h198a12.013 12.013 0 0 1 12 12v24a12.013 12.013 0 0 1 -12 12h-28v16h28a28.032 28.032 0 0 0 28-28v-24a28.032 28.032 0 0 0 -28-28zm-236 38v4a38.043 38.043 0 0 0 38 38h60a64 64 0 1 1 0-80h-60a38.043 38.043 0 0 0 -38 38z"/><path d="m416 344h24v16h-24z"/><path d="m248 96h16v16h-16z"/><path d="m280 96h16v16h-16z"/><path d="m216 96h16v16h-16z"/><path d="m248 128h16v16h-16z"/><path d="m280 128h16v16h-16z"/><path d="m216 128h16v16h-16z"/><path d="m248 160h16v16h-16z"/><path d="m280 160h16v16h-16z"/><path d="m216 160h16v16h-16z"/><path d="m248 192h16v16h-16z"/><path d="m280 192h16v16h-16z"/><path d="m216 192h16v16h-16z"/><path d="m208 232h96v16h-96z"/><path d="m101.391 99.832-14.045-7.664a192.285 192.285 0 0 0 0 183.664l14.045-7.664a176.285 176.285 0 0 1 0-168.336z"/><path d="m119.325 138.524-15.181-5.048a160.674 160.674 0 0 0 3.068 109.473l14.873-5.9a144.692 144.692 0 0 1 -2.76-98.527z"/><path d="m410.609 268.168 14.045 7.664a192.285 192.285 0 0 0 0-183.664l-14.045 7.664a176.285 176.285 0 0 1 0 168.336z"/><path d="m404.788 242.949a160.674 160.674 0 0 0 3.068-109.473l-15.181 5.048a144.692 144.692 0 0 1 -2.76 98.527z"/></g></g></svg>