<svg height="480pt" viewBox="0 0 480 479" width="480pt" xmlns="http://www.w3.org/2000/svg"><path d="m64 424.480469h32v48h-32zm0 0" fill="#9196a9"/><path d="m384 424.480469h32v48h-32zm0 0" fill="#9196a9"/><path d="m8 336.480469h144v96h-144zm0 0" fill="#4db5ff"/><path d="m216 472.480469h48l-8-272h-32zm0 0" fill="#9196a9"/><g fill="#bec3d1"><path d="m216 200.480469h48l-24-192zm0 0"/><path d="m252 221.265625-24-41.566406-154.28125 116.78125zm0 0"/><path d="m252 179.699219-24 41.566406 178.28125 75.214844zm0 0"/></g><path d="m264 200.480469c0 13.257812-10.746094 24-24 24s-24-10.742188-24-24c0-13.253907 10.746094-24 24-24s24 10.746093 24 24zm0 0" fill="#dce1ea"/><path d="m328 336.480469h144v96h-144zm0 0" fill="#4db5ff"/><path d="m8 440.480469h48v32c0 4.417969 3.582031 8 8 8h32c4.417969 0 8-3.582031 8-8v-32h48c4.417969 0 8-3.582031 8-8v-96c0-4.417969-3.582031-8-8-8h-144c-4.417969 0-8 3.582031-8 8v96c0 4.417969 3.582031 8 8 8zm104-96h32v16h-32zm0 32h32v16h-32zm0 32h32v16h-32zm-24 56h-16v-24h16zm-24-120h32v16h-32zm0 32h32v16h-32zm0 32h32v16h-32zm-48-64h32v16h-32zm0 32h32v16h-32zm0 32h32v16h-32zm0 0"/><path d="m73.726562 304.480469c1.070313.003906 2.125-.210938 3.105469-.628907l137.832031-58.144531-6.664062 226.542969c-.0625 2.160156.753906 4.257812 2.257812 5.808594 1.507813 1.550781 3.578126 2.425781 5.742188 2.421875h48c2.164062.003906 4.234375-.871094 5.742188-2.421875 1.503906-1.550782 2.320312-3.648438 2.257812-5.808594l-6.664062-226.542969 137.863281 58.144531c.980469.417969 2.039062.632813 3.105469.628907 3.441406 0 6.5-2.203125 7.589843-5.46875 1.085938-3.265625-.035156-6.863281-2.789062-8.929688l-141.203125-106.863281-21.964844-175.730469c-.511719-3.992187-3.910156-6.988281-7.9375-6.988281s-7.425781 2.996094-7.9375 6.988281l-21.964844 175.730469-141.203125 106.863281c-2.753906 2.066407-3.875 5.664063-2.789062 8.929688 1.089843 3.265625 4.148437 5.46875 7.589843 5.46875zm150.511719 160 6.640625-225.597657 9.121094-3.871093 9.121094 3.847656 6.640625 225.621094zm47.347657-259.925781 78.839843 59.679687-91.089843-38.398437c6.769531-5.167969 11.183593-12.832032 12.25-21.28125zm-31.585938-131.578126 12.246094 97.960938c-7.835938-3.273438-16.65625-3.273438-24.492188 0zm-15.441406 123.503907c.6875-2.730469 2.089844-5.230469 4.058594-7.246094l3.382812-2.511719c4.933594-2.988281 11.117188-2.988281 16.046875 0l3.359375 2.542969c1.972656 2.015625 3.371094 4.515625 4.058594 7.25l.535156 4.238281c-.113281 5.644532-3.191406 10.816406-8.105469 13.601563l-3.453125 1.453125c-2.863281.921875-5.941406.921875-8.800781 0l-3.457031-1.453125c-4.941406-2.765625-8.054688-7.9375-8.183594-13.601563zm-16.144532 8c1.074219 8.4375 5.488282 16.09375 12.25 21.25l-91.0625 38.503906zm0 0"/><path d="m472 328.480469h-144c-4.417969 0-8 3.582031-8 8v96c0 4.417969 3.582031 8 8 8h48v32c0 4.417969 3.582031 8 8 8h32c4.417969 0 8-3.582031 8-8v-32h48c4.417969 0 8-3.582031 8-8v-96c0-4.417969-3.582031-8-8-8zm-104 96h-32v-16h32zm0-32h-32v-16h32zm0-32h-32v-16h32zm40 104h-16v-24h16zm8-40h-32v-16h32zm0-32h-32v-16h32zm0-32h-32v-16h32zm48 64h-32v-16h32zm0-32h-32v-16h32zm0-32h-32v-16h32zm0 0"/></svg>